<?xml version="1.0" encoding="utf-8"?>
<!-- Generator: Adobe Illustrator 25.3.1, SVG Export Plug-In . SVG Version: 6.00 Build 0)  -->
<svg version="1.1" id="Layer_1" xmlns="http://www.w3.org/2000/svg" xmlns:xlink="http://www.w3.org/1999/xlink" x="0px" y="0px"
	 viewBox="0 0 1920 1080" style="enable-background:new 0 0 1920 1080;" xml:space="preserve">
<style type="text/css">
	.st0{fill:#050004;}
</style>
<path class="st0" d="M1396.23,710.19H1604v15.19h-200.92c1.9,13.75-5.27,29.65-19.99,40.04c-27.61,13.81-45.56,48.33-78.7,66.27
	s-62.13-6.9-62.13-6.9c8.28,74.56-23.47,114.6-23.47,114.6c-6.15,6.19-47.92,46.85-112.01,42.63
	c-59.57-3.92-94.52-43.72-100.62-50.91c-10.71-10.74-32.5-29.33-63.51-35.04c-19.18-3.53-31.64-0.01-34.52,0.52
	c-6.87,1.26-21.56,6.21-32.27,20.65c-9.42,12.7-10.44,26.19-10.53,31.82c0,5.4,0,8.28,0,8.28c0,0.06,3.25,18.81-4.14,29
	c-6.9,9.52-22.96,11.4-34.52,8.28c-7.2-1.94-12.29-5.72-15.19-8.28c-42.8-46.94,1.38-114.6,42.8-135.31
	c41.42-20.71,132.55-11.05,173.97,34.52c41.42,45.56,95.27,38.66,95.27,38.66c73.18-4.14,63.51-84.22,63.51-84.22
	c-35.9,22.09-74.56,19.33-74.56,19.33c-103.55,0-118.74-76.99-118.74-76.99s-39.98-29.5-38.8-56.94H730v-15.19h230.58
	c17.34-22.45,45.24-8.7,58.63,0h320.91c6.46-5.44,16.31-11.41,28.81-11.74c5.48-0.14,10.28,0.83,14.15,2.07
	C1385.77,701.75,1391.53,704.72,1396.23,710.19z M1604,514.13v15.19h-279.46c-11.83,8.63-24.75,13.72-32.49,12.43
	c-8.42-1.41-17.27-7.15-23.92-12.43h-230.12c-1.42,2.24-1.92,4.14-1.92,4.14c-19.66,10.97-36.27,8-50.94-4.14H730v-15.19h240.96
	c-4.05-5.34-7.96-11.36-11.76-17.95c-20.71-35.9,31.19-51.09,31.19-51.09c-8.97-9.8-16.3-19.7-22.26-29.56l-75.87,27.6
	c-3.34,1.21-6.89-0.13-7.93-2.99c-1.04-2.87,0.82-6.17,4.16-7.39l74.19-26.98c-4.48-8.69-7.94-17.31-10.55-25.77
	c-0.47,0.13-0.97,0.21-1.5,0.21h-73.04c-3.05,0-5.52-2.47-5.52-5.52c0-3.05,2.47-5.52,5.52-5.52h71.62
	c-14.47-62.96,15.52-114.6,15.52-114.6s-63.51-88.37-33.14-128.41c30.38-40.04,120.12,31.76,120.12,31.76
	c77.32-40.04,144.98-27.61,144.98-27.61c59.37-93.89,92.51-74.56,92.51-74.56c49.71,19.33,24.85,127.03,24.85,127.03
	c37.92,50.97,52.48,94.71,54.17,131.06l54.43-23.79c2.8-1.22,6.05,0.05,7.27,2.85c1.22,2.8-0.05,6.05-2.85,7.27l-58.75,25.68
	c-0.35,11.3-1.95,21.82-4.42,31.53l74.23-4.7c3.55-0.22,6.57,2.06,6.77,5.11c0.19,3.04-2.52,5.69-6.07,5.92l-78.29,4.95
	c-17.38,50.61-57.52,76.45-57.52,76.45c37.28-11.05,51.09,17.95,48.33,45.56c-0.82,8.19-4.93,16.25-10.72,23.47H1604z
	 M1272.58,290.01c-3.99,0.37-7.69,0.99-11.12,1.8c4.04,2.84,37.14,27.83,21.84,72.11c27.69-8.15,34.32-31.47,34.32-31.47
	C1322.57,288.54,1272.58,290.01,1272.58,290.01z M1224.99,131.79c0,0,61.92,24.26,64.79,32.03c0,0,21.05-66.63-12.16-80.87
	C1277.62,82.95,1246.45,78.25,1224.99,131.79z M1217.03,350.85c2.91,10.74,28.52,14.36,28.52,14.36c4.94,0.82,9.55,1.27,13.86,1.43
	c-5.92-4.76-26.79-24.71-20.1-64.68C1215.77,319.84,1217.03,350.85,1217.03,350.85z M1155.44,377.56
	c6.73,6.78,10.16,8.16,10.16,8.16s-2.05,11.05-8.95,12.43c0,0-2.76,8.28,2.76,6.9c5.52-1.38,13.81-13.81,13.81-13.81
	s12.43,5.52,15.19,5.52s11.05-5.52,4.14-5.52c-6.9,0-16.57-5.52-16.57-5.52s13.81-11.05,8.28-20.71c-5.52-9.67-28.82,0-28.82,0
	S1148.71,370.78,1155.44,377.56z M1069.95,392.08c4.25-0.76,8.74-1.85,13.52-3.35c0,0,24.85-7.16,26.23-18.2
	c0,0-3.09-30.88-28.89-45.3C1093.02,363.87,1075.14,386.55,1069.95,392.08z M1046.19,318.06c0,0-49.71,5.52-38.66,48.33
	c0,0,9.82,22.16,38.38,26.36c-21.33-41.71,7.95-71.08,11.55-74.46C1053.93,317.97,1050.19,317.87,1046.19,318.06z M1025.48,171.71
	c-38.66-42.8-66.27-27.61-66.27-27.61c-26.23,24.85,16.57,80.08,16.57,80.08C975.77,215.89,1025.48,171.71,1025.48,171.71z"/>
</svg>
